#N canvas -8 -8 1920 997 12;
#X obj 99 66 loadbang;
#X obj 743 271 osc~;
#X obj 870 590 dac~;
#X obj 801 63 receive freq;
#X obj 797 261 *~ 0.8;
#X obj 853 259 *~ 0.667;
#X obj 796 285 osc~;
#X obj 851 287 osc~;
#X obj 800 334 *~ 0.333;
#X obj 574 66 receive left;
#X obj 1094 61 receive right;
#X obj 1281 228 noise~;
#X obj 982 60 receive gain;
#X obj 874 392 *~;
#X obj 983 258 line~;
#X obj 799 443 *~;
#X obj 949 441 *~;
#X obj 572 229 pack 0 10;
#X obj 573 255 line~;
#X obj 1096 232 pack 0 10;
#X obj 1089 262 line~;
#X obj 801 107 pack 0 10;
#X obj 799 129 line~;
#X obj 1367 482 *~;
#X obj 1290 325 lop~ 220;
#X obj 982 231 pack 0 10;
#X obj 1289 401 *~;
#X obj 362 68 receive complete;
#X obj 362 144 select 1;
#X msg 362 169 1;
#X obj 192 344 readsf~ 1 44100;
#X msg 193 108 open goal.wav;
#X obj 98 507 send end;
#X obj 183 424 bng 15 250 50 0 empty empty empty 17 7 0 10 -262144
-1 -1;
#X msg 98 123 \; freq 110 \; gain 1 \; left 0.5 \; right 0.5 \; noiz
0 \; complete 0;
#X obj 1383 60 receive noiz;
#X text 309 342 Outlet de fin de lecture du fichier : demande la réouverture
du fichier (nécessaire pour prochaine lecture) \, et demande l'envoi
du signal de fin au processus externe;
#X text 626 0 Les objets [pack] et [line~] lissent les données audio
afin d'éviter les changements brusques de paramètres \, et les "clicks"
conséquents.;
#X text 990 187 Volume ajusté;
#X text 1395 328 Low-pass filter pour un son moins douloureux;
#X text 606 129 Synthèse d'un accord parfait \, par l'ajout des 4/5
et 2/3 fréquences;
#X text 5 5 Initialisation du processus : déclaration des variables
\, ouverture du fchier son de victoire;
#X connect 0 0 34 0;
#X connect 0 0 31 0;
#X connect 1 0 8 0;
#X connect 3 0 21 0;
#X connect 4 0 6 0;
#X connect 5 0 7 0;
#X connect 6 0 8 0;
#X connect 7 0 8 0;
#X connect 8 0 13 0;
#X connect 9 0 17 0;
#X connect 10 0 19 0;
#X connect 11 0 24 0;
#X connect 12 0 25 0;
#X connect 13 0 15 0;
#X connect 13 0 16 0;
#X connect 14 0 13 1;
#X connect 14 0 26 1;
#X connect 15 0 2 0;
#X connect 16 0 2 1;
#X connect 17 0 18 0;
#X connect 18 0 15 1;
#X connect 19 0 20 0;
#X connect 20 0 16 1;
#X connect 21 0 22 0;
#X connect 22 0 1 0;
#X connect 22 0 4 0;
#X connect 22 0 5 0;
#X connect 23 0 2 0;
#X connect 23 0 2 1;
#X connect 24 0 26 0;
#X connect 25 0 14 0;
#X connect 26 0 23 0;
#X connect 27 0 28 0;
#X connect 28 0 29 0;
#X connect 29 0 30 0;
#X connect 30 0 2 0;
#X connect 30 0 2 1;
#X connect 30 1 31 0;
#X connect 30 1 33 0;
#X connect 31 0 30 0;
#X connect 33 0 32 0;
#X connect 35 0 23 1;
