#N canvas 1912 -8 1280 637 12;
#X obj 8 13 loadbang;
#X obj 213 166 osc~;
#X obj 298 410 dac~;
#X obj 251 81 receive freq;
#X obj 269 129 *~ 0.8;
#X obj 338 128 *~ 0.667;
#X obj 274 169 osc~;
#X obj 337 168 osc~;
#X obj 272 214 *~ 0.333;
#X obj 121 215 receive left;
#X obj 394 216 receive right;
#X obj 335 263 *~ right;
#X obj 195 263 *~ left;
#X msg 8 46 \; freq 100 \; gain 0 \; left 0 \; right 0 \; hits 0;
#X obj 725 207 receive hits;
#X obj 603 218 noise~;
#X obj 651 275 *~ hits;
#X connect 0 0 13 0;
#X connect 1 0 8 0;
#X connect 3 0 1 0;
#X connect 3 0 4 0;
#X connect 3 0 5 0;
#X connect 4 0 6 0;
#X connect 5 0 7 0;
#X connect 6 0 8 0;
#X connect 7 0 8 0;
#X connect 8 0 11 0;
#X connect 8 0 12 0;
#X connect 9 0 12 1;
#X connect 10 0 11 1;
#X connect 11 0 2 1;
#X connect 12 0 2 0;
#X connect 14 0 16 1;
#X connect 15 0 16 0;
#X connect 16 0 2 0;
#X connect 16 0 2 1;
