#N canvas -8 -8 1920 997 12;
#X obj 8 13 loadbang;
#X obj 205 147 osc~;
#X obj 519 609 dac~;
#X obj 255 14 receive freq;
#X obj 256 134 *~ 0.8;
#X obj 324 133 *~ 0.667;
#X obj 255 158 osc~;
#X obj 324 160 osc~;
#X obj 275 218 *~ 0.333;
#X obj 123 15 receive left;
#X obj 501 14 receive right;
#X obj 692 14 receive hits;
#X obj 542 195 noise~;
#X obj 403 13 receive gain;
#X obj 321 273 *~;
#X obj 403 156 line~;
#X obj 259 360 *~;
#X obj 387 361 *~;
#X obj 123 134 pack 0 10;
#X obj 123 160 line~;
#X obj 501 130 pack 0 10;
#X obj 501 154 line~;
#X obj 255 48 pack 0 10;
#X obj 255 85 line~;
#X obj 556 451 *~;
#X obj 535 261 lop~ 220;
#X obj 403 132 pack 0 10;
#X obj 521 357 *~;
#X obj 810 14 receive complete;
#X msg 8 46 \; freq 110 \; gain 1 \; left 0.5 \; right 0.5 \; hits
0 \; complete 0;
#X obj 873 137 loadbang;
#X obj 748 154 select 1;
#X msg 743 184 1;
#X obj 681 357 readsf~ 1 44100;
#X msg 854 224 open goal.wav;
#X obj 812 497 send end;
#X obj 796 429 bng 15 250 50 0 empty empty empty 17 7 0 10 -262144
-1 -1;
#X connect 0 0 29 0;
#X connect 1 0 8 0;
#X connect 3 0 22 0;
#X connect 4 0 6 0;
#X connect 5 0 7 0;
#X connect 6 0 8 0;
#X connect 7 0 8 0;
#X connect 8 0 14 0;
#X connect 9 0 18 0;
#X connect 10 0 20 0;
#X connect 11 0 24 1;
#X connect 12 0 25 0;
#X connect 13 0 26 0;
#X connect 14 0 16 0;
#X connect 14 0 17 0;
#X connect 15 0 14 1;
#X connect 15 0 27 1;
#X connect 16 0 2 0;
#X connect 17 0 2 1;
#X connect 18 0 19 0;
#X connect 19 0 16 1;
#X connect 20 0 21 0;
#X connect 21 0 17 1;
#X connect 22 0 23 0;
#X connect 23 0 1 0;
#X connect 23 0 4 0;
#X connect 23 0 5 0;
#X connect 24 0 2 0;
#X connect 24 0 2 1;
#X connect 25 0 27 0;
#X connect 26 0 15 0;
#X connect 27 0 24 0;
#X connect 28 0 31 0;
#X connect 30 0 34 0;
#X connect 31 0 32 0;
#X connect 32 0 33 0;
#X connect 33 0 2 0;
#X connect 33 0 2 1;
#X connect 33 1 34 0;
#X connect 33 1 36 0;
#X connect 34 0 33 0;
#X connect 36 0 35 0;
